<?xml version="1.0" encoding="utf-8" ?>
<svg width="1024" height="1024" viewBox="0 0 1024 1024" fill="none" xmlns="http://www.w3.org/2000/svg" xmlns:xlink="http://www.w3.org/1999/xlink">
  <rect width="1024" height="1024" fill="#FFFFFF" />
  <!-- Safe zone is 80% (820px). Logo is centered. -->
  <g transform="translate(512, 512) scale(1.65) translate(-322, -280)">
    <defs>
      <linearGradient id="gradient_0" gradientUnits="userSpaceOnUse" x1="433.52756" y1="389.2023" x2="256.66391" y2="104.41337">
        <stop offset="0" stop-color="#2652DB"/><stop offset="1" stop-color="#3B6DFF"/>
      </linearGradient>
    </defs>
    <path fill="url(#gradient_0)" transform="matrix(1.00625 0 0 1.00625 0 3.05176e-05)" d="M497.751 181.084C509.626 180.925 522.47 185.483 526.092 197.661C532.997 220.872 520.475 258.238 510.904 279.229C505.072 292.251 498.093 304.729 490.05 316.514C470.913 344.01 441.684 370.035 411.673 385.19C406.688 387.707 401.978 389.37 396.774 391.32C397.547 388.053 402.92 368.752 404.047 367.182C405.267 365.482 414.505 360.458 417.05 358.846C426.315 353.065 435.019 346.429 443.047 339.025C448.56 333.91 456.19 326.401 461.152 320.628C480.585 297.583 494.765 270.581 502.705 241.5C505.01 233.143 507.241 223.262 507.879 214.585C508.179 210.493 506.847 207.871 504.185 205.014C488.642 204.755 470.141 218.164 458.382 227.825C429.108 252.037 409.281 285.772 402.371 323.127C399.998 335.401 398.555 348.256 396.259 360.66C392.606 380.397 384.998 401.796 373.407 418.265C358.307 439.929 335.13 454.612 309.092 459.011C308.723 432.532 318.84 403.486 334.965 382.647C341.975 373.586 352.166 361.352 357.01 351.015C358.788 347.113 359.976 342.939 361.235 338.837C358.41 342.073 353.647 348.686 351.074 351.163C338.652 363.121 319.316 371.814 302.286 374.176C293.653 375.373 283.388 375.055 274.729 375.045C290.377 380.63 305.227 384.105 321.821 385C322.191 385.02 322.114 385.093 322.345 385.443C321.835 387.415 315.06 400.408 313.126 402.016C311.635 403.341 309.577 403.559 307.644 403.35C258.696 398.045 215.202 364.459 194.075 320.226C191.264 314.289 188.716 308.232 186.436 302.072C180.877 287.034 175.935 271.499 163.234 260.543C151.035 250.019 135.118 245.229 124.645 232.388C115.547 221.233 111.017 206.497 112.103 192.194C133.887 216.171 164.015 206.104 184.467 225.435C197.751 237.992 200.587 257.498 207.311 273.682C211.815 284.524 218.461 294.774 226.991 302.865C238.515 313.796 252.709 318.416 268.386 318.041C310.471 317.034 344.075 272.165 370.655 244.41C382.092 232.467 393.818 221.116 407.28 211.431C432.912 192.989 466.161 181.733 497.751 181.084Z"/>
    <path fill="#2F5DF0" transform="matrix(1.00625 0 0 1.00625 0 3.05176e-05)" d="M276.262 192.049L276.69 192.258C277.868 194.817 275.49 203.94 275.05 206.931C272.538 223.978 262.491 237.573 247.702 246.24C232.148 255.355 220.41 258.534 218.856 278.698C217.309 274.903 214.612 269.684 212.795 265.908C209.93 257.943 207.432 249.845 204.46 241.885C203.198 238.506 200.239 234.454 199.745 230.989C199.52 229.41 202.799 226.735 203.91 225.681C219.455 210.943 237.817 213.328 256.145 206.209C264.63 202.913 269.74 198.207 276.262 192.049Z"/>
    <path fill="#2F5DF0" transform="matrix(1.00625 0 0 1.00625 0 3.05176e-05)" d="M464.567 359.005C465.582 360.406 465.382 364.039 465.504 365.801C467.569 395.744 453.22 432.31 426.066 447.717C424.871 445.313 424.303 443.744 423.442 441.201C419.026 427.965 414.505 408.361 416.542 393.899C416.777 392.233 421.635 389.497 423.308 388.496C435.046 381.471 446.45 373.878 456.784 364.872C458.969 362.971 462.08 360.428 464.567 359.005Z"/>
  </g>
</svg>
